<svg xmlns="http://www.w3.org/2000/svg" viewBox="0 0 120 120" width="120" height="120">
  <defs>
    <linearGradient id="leaf" x1="0" y1="0" x2="1" y2="1">
      <stop offset="0%" stop-color="#A8CE3C" />
      <stop offset="100%" stop-color="#3FA24B" />
    </linearGradient>
  </defs>
  <rect width="120" height="120" rx="27" fill="#0E3A2B" />
  <g transform="translate(0,8)">
    <path d="M60 82 C 38 88, 18 78, 13 55 C 30 52, 47 60, 60 82 Z" fill="url(#leaf)" opacity="0.92" />
    <path d="M60 82 C 82 88, 102 78, 107 55 C 90 52, 73 60, 60 82 Z" fill="url(#leaf)" opacity="0.78" />
    <path d="M60 8 C 74 32, 76 58, 60 84 C 44 58, 46 32, 60 8 Z" fill="url(#leaf)" />
    <path d="M60 22 L60 78 M60 40 L50 48 M60 40 L70 48 M60 56 L52 62 M60 56 L68 62"
      stroke="#0E3A2B" stroke-width="2.6" stroke-linecap="round" fill="none" opacity="0.55" />
  </g>
</svg>
